<svg id="Capa_1" enable-background="new 0 0 511.8 511.8" height="512" viewBox="0 0 511.8 511.8" width="512" xmlns="http://www.w3.org/2000/svg"><g><path d="m480 72.8-31.8-31.8-212.4 212.1 1.95 61.95 61.95 1.95 212.1-212.4z" fill="#80d4ff"/><path d="m511.8 104.6-31.8-31.8-242.25 242.25 61.95 1.95z" fill="#6aa9ff"/><path d="m267.75 285.05-31.95-31.95-84.3 84.3 31.95 31.95 31.95 31.95 84.3-84.3z" fill="#dfe7f4"/><path d="m181.966 320.583h119.218v45.184h-119.218z" fill="#c7cfe1" transform="matrix(.707 -.707 .707 .707 -171.906 271.333)"/><path d="m210.328 342.472c-28.301-28.33-77.754-28.33-106.055 0-42.246 42.231-84.346 81.899-84.404 81.958l-19.869 16.846 25.143 8.203c5.852 2.071 31.106 10.589 61.864 16.315 16.443 3.06 34.391 5.007 51.94 5.007 27.817 0 54.404-5.296 71.382-22.273 14.165-14.165 21.973-32.988 21.973-53.027s-7.809-38.878-21.974-53.029z" fill="#404a80"/><path d="m210.328 448.527c14.165-14.165 21.973-32.988 21.973-53.027s-7.808-38.877-21.973-53.027l-123.321 123.321c16.443 3.06 34.391 5.007 51.94 5.007 27.817-.001 54.404-5.297 71.381-22.274z" fill="#283366"/></g></svg>